# xmcd
#
# Track frame offsets: 
#        150
#        13820
#        43520
#        77030
#        107965
#        159057
#        174707
#        190232
#        226690
#        248590
#        270020
#        285320
#        303470
#        319470
#
# Disc length: 4635 seconds
#
# Revision: 0
# Processed by: cddbd v1.5.2PL0 Copyright (c) Steve Scherf et al.
# Submitted via: ExactAudioCopyFreeDBPlugin 1.0
#
DISCID=a812190e
DTITLE=Big Joe Turner With Michael Bloomfield - Shake, Rattle and Blues
DYEAR=1977
DGENRE=Blues
TTITLE0=TV Mama
TTITLE1=Stormy Monday Blues
TTITLE2=Chains Of Love
TTITLE3=How Long Blues
TTITLE4=Give Me An Hour In Your Garden
TTITLE5=When The Sun Goes Down
TTITLE6=Morning, Noon And Night
TTITLE7=I  Hear You Knockin'
TTITLE8=The Chicken And The Hawk
TTITLE9=Hide And Go Seek
TTITLE10=Shake, Rattle And Roll
TTITLE11=Roll 'Em Pete
TTITLE12=Ain't Gonna Be Your Lowdown Dog
TTITLE13=Flip, Flop And Fly
EXTD=
EXTT0=
EXTT1=
EXTT2=
EXTT3=
EXTT4=
EXTT5=
EXTT6=
EXTT7=
EXTT8=
EXTT9=
EXTT10=
EXTT11=
EXTT12=
EXTT13=
PLAYORDER=
